<svg 
          width="390" 
          height="411" fill="none" 
          xmlns="http://www.w3.org/2000/svg">
          <defs>
            <linearGradient id="e102">
        <stop offset="0%" style="stop-color:rgb(179.000004529953,20.000000707805157,11.000000294297934);stop-opacity:1" />
        <stop offset="100%" style="stop-color:rgb(153.00000607967377,44.000001177191734,32.00000189244747);stop-opacity:0" />
        </linearGradient>
          </defs>
          <path d="M 390 195 C 390 302.6955261230469 302.6955261230469 390 195 390 C 87.30447387695312 390 0 302.6955261230469 0 195 C 0 87.30447387695312 87.30447387695312 0 195 0 C 302.6955261230469 0 390 87.30447387695312 390 195 ZM 390 216 C 390 323.6955261230469 302.6955261230469 411 195 411 C 87.30447387695312 411 0 323.6955261230469 0 216 C 0 108.30447387695312 87.30447387695312 21 195 21 C 302.6955261230469 21 390 108.30447387695312 390 216 ZM 375 195 C 375 294.4112548828125 294.4112548828125 375 195 375 C 95.5887451171875 375 15 294.4112548828125 15 195 C 15 95.5887451171875 95.5887451171875 15 195 15 C 294.4112548828125 15 375 95.5887451171875 375 195 ZM 375 195 C 375 294.4112548828125 294.4112548828125 375 195 375 C 95.5887451171875 375 15 294.4112548828125 15 195 C 15 95.5887451171875 95.5887451171875 15 195 15 C 294.4112548828125 15 375 95.5887451171875 375 195 Z" fill="url(#e102)"/>
        </svg>